<?xml version="1.0" encoding="UTF-8" standalone="no"?>
<svg
   xmlns:dc="http://purl.org/dc/elements/1.1/"
   xmlns:cc="http://creativecommons.org/ns#"
   xmlns:rdf="http://www.w3.org/1999/02/22-rdf-syntax-ns#"
   xmlns:svg="http://www.w3.org/2000/svg"
   xmlns="http://www.w3.org/2000/svg"
   xmlns:sodipodi="http://sodipodi.sourceforge.net/DTD/sodipodi-0.dtd"
   xmlns:inkscape="http://www.inkscape.org/namespaces/inkscape"
   id="svg2"
   height="320"
   width="320"
   version="1.1"
   viewBox="0 0 320 320.00001"
   sodipodi:docname="logo_white.svg"
   inkscape:version="0.92.3 (2405546, 2018-03-11)">
  <metadata
     id="metadata21">
    <rdf:RDF>
      <cc:Work
         rdf:about="">
        <dc:format>image/svg+xml</dc:format>
        <dc:type
           rdf:resource="http://purl.org/dc/dcmitype/StillImage" />
        <dc:title></dc:title>
      </cc:Work>
    </rdf:RDF>
  </metadata>
  <defs
     id="defs19" />
  <sodipodi:namedview
     pagecolor="#ffffff"
     bordercolor="#666666"
     borderopacity="1"
     objecttolerance="10"
     gridtolerance="10"
     guidetolerance="10"
     inkscape:pageopacity="0"
     inkscape:pageshadow="2"
     inkscape:window-width="1366"
     inkscape:window-height="705"
     id="namedview17"
     showgrid="false"
     inkscape:zoom="0.8375"
     inkscape:cx="374.89779"
     inkscape:cy="248.32922"
     inkscape:window-x="-8"
     inkscape:window-y="-8"
     inkscape:window-maximized="1"
     inkscape:current-layer="svg2" />
  <path
     style="fill:#ffffff;stroke-width:0.47888497"
     d="m 103.11027,307.11531 c -34.567398,-5.2471 -63.008847,-30.10342 -72.928585,-63.73569 -1.772858,-6.01077 -1.600706,-7.57642 0.253555,-2.30596 10.578791,30.06859 38.366982,49.99228 69.80734,50.05075 13.19505,0.0245 23.19725,-2.39931 34.81938,-8.43784 14.13432,-7.3438 25.34719,-18.95228 32.36595,-33.50788 4.07936,-8.45983 5.80376,-14.49472 7.2523,-25.3809 1.52245,-11.44159 0.80357,-18.99253 -2.7352,-28.7299 -3.58601,-9.86735 -9.52666,-19.8081 -23.61212,-39.5112 -15.20606,-21.27062 -20.92884,-30.26886 -25.46106,-40.03381 -2.49617,-5.37813 -5.11773,-12.95937 -6.19366,-17.911274 -1.19141,-5.483382 -1.46965,-16.996015 -0.53976,-22.333131 2.14287,-12.298996 7.88401,-23.862042 17.80049,-35.851392 3.94527,-4.769955 10.27717,-11.31492 10.27717,-10.622986 0,0.200035 -1.2539,2.241043 -2.78644,4.535573 -6.78343,10.156165 -11.1618,18.587594 -14.15768,27.263428 -5.09634,14.758636 -4.57105,27.479803 1.65133,39.990452 5.22485,10.50501 11.28035,17.46258 31.57488,36.27845 18.16957,16.84575 25.15638,24.43967 32.1144,34.90496 6.1843,9.30158 10.26421,19.17951 12.51948,30.31116 0.95772,4.72715 1.09963,6.84899 1.09963,16.44194 0,9.59294 -0.14191,11.71478 -1.09963,16.44193 -3.95617,19.52699 -15.03013,38.5419 -29.74859,51.08085 -11.83382,10.08145 -26.55631,17.32668 -41.46341,20.40494 -6.33164,1.30746 -24.03856,1.68535 -30.80977,0.65753 z M 92.886291,275.71946 C 75.676592,273.19491 59.559867,261.48929 51.63014,245.75502 40.274537,223.22308 45.860554,194.89198 64.863853,178.63641 c 3.572219,-3.05571 7.96017,-6.03769 8.334121,-5.66374 0.148823,0.14883 -0.391622,1.0248 -1.200986,1.94662 -2.529609,2.88106 -5.333437,7.31237 -7.528823,11.89891 -14.277265,29.82768 0.775985,64.91968 32.525016,75.82199 13.337309,4.57991 29.781169,3.24857 42.402539,-3.43302 1.69469,-0.89715 3.18776,-1.52467 3.31795,-1.39449 0.38063,0.38064 -4.40866,4.78507 -8.50932,7.82552 -6.66843,4.94434 -14.84324,8.39614 -23.43114,9.89374 -4.3041,0.75057 -13.398689,0.84592 -17.886919,0.18752 z M 84.834338,145.70311 c -6.140397,-1.61265 -12.422238,-5.81859 -17.469092,-11.69625 -2.751945,-3.20496 -6.60899,-8.86287 -11.26288,-16.52153 -7.972755,-13.12034 -12.917908,-18.551015 -18.7921,-20.637163 -2.068312,-0.734538 -7.252948,-0.983299 -8.991728,-0.431432 -0.522717,0.165905 -0.950395,0.09472 -0.950395,-0.158181 0,-0.252899 2.210286,-1.427805 4.911747,-2.610899 9.067939,-3.971264 15.487928,-5.557939 24.103538,-5.957104 6.541114,-0.303053 11.666222,0.291315 17.774011,2.061283 18.339173,5.314484 33.369001,21.448616 36.512271,39.194966 0.59351,3.35088 0.64811,7.92159 0.10484,8.7774 -0.26461,0.41685 -1.6887,-0.96519 -4.586,-4.45055 -7.457769,-8.97152 -17.100402,-16.39603 -28.273252,-21.76948 -5.584096,-2.6856 -12.441714,-5.38647 -10.627889,-4.18578 0.489578,0.32408 3.398804,2.21894 6.464946,4.21079 7.781986,5.0554 14.261046,10.40444 20.676006,17.06988 5.15661,5.35795 11.918919,14.0349 11.944369,15.32621 0.0119,0.60425 -1.89273,1.23419 -6.2033,2.05167 -3.637919,0.68992 -12.251088,0.53612 -15.335092,-0.27383 z M 177.01969,115.9531 c -4.9493,-0.44963 -17.4793,-3.22759 -17.4793,-3.87524 0,-0.15085 1.60329,-2.65934 3.56286,-5.57444 14.7069,-21.87825 38.62305,-43.318308 65.49338,-58.712684 3.20196,-1.834448 5.68601,-3.33536 5.5201,-3.33536 -0.63753,0 -9.72439,3.426113 -15.32131,5.776755 -26.19093,10.999882 -46.616,26.3588 -62.51165,47.006505 -1.97115,2.560425 -3.76878,4.541074 -3.99472,4.401424 -0.68421,-0.42286 -0.46144,-12.71151 0.3107,-17.13929 2.1829,-12.517722 9.06891,-26.606633 18.51909,-37.890412 8.72875,-10.422383 18.95854,-18.433088 31.18014,-24.416427 12.70634,-6.220656 23.22265,-8.787882 37.69408,-9.201826 16.18513,-0.462963 28.92132,1.91121 45.12931,8.412625 4.63369,1.858686 13.47212,6.271842 13.16865,6.575304 -0.12456,0.124563 -1.17079,0.0088 -2.32494,-0.257312 -3.0626,-0.70607 -8.82976,-0.59959 -12.33987,0.227831 -9.10237,2.145654 -17.95379,9.86085 -27.25581,23.75709 -1.34773,2.013347 -5.60721,8.801541 -9.46552,15.084876 -11.39415,18.555552 -16.69308,25.753758 -24.46879,33.239011 -9.40093,9.04976 -18.67163,13.80739 -30.32953,15.56482 -4.19988,0.63313 -10.42438,0.78031 -15.08687,0.35675 z"
     id="path45"
     inkscape:connector-curvature="0" />
</svg>
