<?xml version="1.0" encoding="UTF-8" standalone="no"?>
<svg
   xmlns:dc="http://purl.org/dc/elements/1.1/"
   xmlns:cc="http://creativecommons.org/ns#"
   xmlns:rdf="http://www.w3.org/1999/02/22-rdf-syntax-ns#"
   xmlns:svg="http://www.w3.org/2000/svg"
   xmlns="http://www.w3.org/2000/svg"
   xmlns:sodipodi="http://sodipodi.sourceforge.net/DTD/sodipodi-0.dtd"
   xmlns:inkscape="http://www.inkscape.org/namespaces/inkscape"
   id="svg2"
   height="320"
   width="1543.4"
   version="1.1"
   viewBox="0 0 1543.4268 320.00026"
   sodipodi:docname="36f68b2b2bfda81b4a46fcd2d6f8dead.svg"
   inkscape:version="0.92.3 (2405546, 2018-03-11)">
  <metadata
     id="metadata35">
    <rdf:RDF>
      <cc:Work
         rdf:about="">
        <dc:format>image/svg+xml</dc:format>
        <dc:type
           rdf:resource="http://purl.org/dc/dcmitype/StillImage" />
        <dc:title></dc:title>
      </cc:Work>
    </rdf:RDF>
  </metadata>
  <defs
     id="defs33" />
  <sodipodi:namedview
     pagecolor="#ffffff"
     bordercolor="#666666"
     borderopacity="1"
     objecttolerance="10"
     gridtolerance="10"
     guidetolerance="10"
     inkscape:pageopacity="0"
     inkscape:pageshadow="2"
     inkscape:window-width="1366"
     inkscape:window-height="705"
     id="namedview31"
     showgrid="false"
     inkscape:zoom="0.22612414"
     inkscape:cx="773.89804"
     inkscape:cy="118.30276"
     inkscape:window-x="-8"
     inkscape:window-y="-8"
     inkscape:window-maximized="1"
     inkscape:current-layer="svg2" />
  <path
     style="fill:#ffffff;stroke-width:0.48822325"
     d="m 321.3518,308.51322 c -35.24146,-5.34942 -64.23752,-30.69044 -74.35069,-64.97854 -1.80743,-6.12799 -1.63192,-7.72416 0.2585,-2.35093 10.78507,30.65493 39.11514,50.96714 71.16858,51.02675 13.45235,0.025 23.6496,-2.4461 35.49836,-8.60239 14.40994,-7.487 25.84147,-19.32185 32.99709,-34.16128 4.15891,-8.6248 5.91694,-14.77737 7.39372,-25.87583 1.55214,-11.6647 0.81924,-19.36288 -2.78854,-29.29013 -3.65593,-10.05977 -9.71242,-20.19436 -24.07256,-40.28168 -15.50257,-21.68539 -21.33694,-30.8591 -25.95755,-40.81447 -2.54484,-5.483 -5.21752,-13.212084 -6.31444,-18.260548 -1.21464,-5.590308 -1.49831,-17.327439 -0.55028,-22.768628 2.18466,-12.538828 8.03775,-24.327355 18.14761,-36.550497 4.02219,-4.86297 10.47757,-11.535563 10.47757,-10.830135 0,0.203936 -1.27835,2.284743 -2.84078,4.624017 -6.9157,10.354211 -11.37945,18.950054 -14.43375,27.795067 -5.19573,15.04643 -4.66019,28.015661 1.68353,40.77026 5.32673,10.709864 11.50032,17.803114 32.19059,36.985894 18.52388,17.17424 25.64693,24.91624 32.74063,35.58561 6.3049,9.48296 10.46436,19.55352 12.76362,30.90223 0.97639,4.81933 1.12107,6.98255 1.12107,16.76256 0,9.78001 -0.14468,11.94322 -1.12107,16.76255 -4.03332,19.90776 -15.32323,39.29347 -30.3287,52.07692 -12.06457,10.27805 -27.07416,17.66456 -42.27194,20.80285 -6.45512,1.33295 -24.50732,1.71821 -31.41057,0.67035 z m 667.7517,-1.97288 c -2.04575,-0.37032 -4.792,-1.07092 -6.10279,-1.55688 l -2.38326,-0.88357 -0.14105,-4.25798 c -0.088,-2.65542 0.0459,-4.25798 0.35587,-4.25798 0.27331,0 2.11279,0.54241 4.08765,1.20535 12.11492,4.06686 25.25228,3.28929 29.97188,-1.77396 2.6052,-2.79487 3.4931,-8.84658 1.8164,-12.37998 -1.7128,-3.60948 -5.3309,-5.8626 -15.9533,-9.93489 -12.94494,-4.96265 -17.53951,-9.4152 -19.03626,-18.44778 -0.62961,-3.79972 0.0303,-8.83987 1.54718,-11.81278 2.26077,-4.43147 7.96541,-8.31485 14.13577,-9.62275 4.24731,-0.90028 11.09941,-0.88321 16.39841,0.0409 4.3009,0.75001 9.9142,2.4082 10.6897,3.15778 0.2334,0.22562 -0.041,1.7828 -0.6177,3.50114 -1.5671,4.67151 -1.4573,4.58723 -4.5048,3.45573 -7.0887,-2.63204 -16.9315,-3.49005 -21.38431,-1.86411 -4.89807,1.78854 -7.33543,5.12687 -7.33543,10.04708 0,6.5857 3.23624,9.51883 15.90454,14.41504 8.1254,3.14037 12.2381,5.42557 15.3965,8.55496 2.2891,2.26797 2.9363,3.30226 3.7838,6.04582 1.7767,5.75232 1.151,12.36366 -1.6171,17.08712 -2.5168,4.29453 -8.2996,7.95689 -14.6926,9.30507 -4.2999,0.90679 -15.25056,0.89425 -20.3191,-0.0233 z m 114.058,0.22493 c -1.6112,-0.22932 -4.4123,-0.88919 -6.2249,-1.46636 l -3.2955,-1.04941 v -4.38972 c 0,-3.94872 0.086,-4.36507 0.8544,-4.14427 0.4699,0.13501 2.77,0.81065 5.1113,1.50143 11.0428,3.25807 21.2698,2.88637 26.8512,-0.97588 2.3375,-1.61759 4.289,-5.46211 4.2854,-8.4425 -0.01,-6.89832 -3.406,-10.01627 -16.1087,-14.78323 -10.5981,-3.97716 -15.4335,-7.40988 -18.1174,-12.8617 -1.3044,-2.64949 -1.5852,-3.85838 -1.7854,-7.68681 -0.2861,-5.46874 0.5794,-9.01254 2.9649,-12.14008 2.1717,-2.84728 6.2122,-5.57838 10.0799,-6.81326 6.4197,-2.04969 17.4941,-1.69039 25.3444,0.8223 5.3899,1.72519 5.1989,1.43185 3.6678,5.63169 -0.7259,1.99138 -1.374,3.69231 -1.4401,3.77985 -0.066,0.0875 -2.2199,-0.51344 -4.7862,-1.33551 -5.8207,-1.86454 -11.7561,-2.58765 -16.1418,-1.96655 -7.0133,0.99321 -10.6891,4.59551 -10.703,10.48917 -0.016,6.72635 3.9787,10.41498 15.7992,14.58843 6.6091,2.33351 12.633,5.61037 15.3998,8.37715 3.9913,3.99127 5.6875,9.9033 4.6642,16.25709 -1.3866,8.60988 -7.4513,14.37117 -17.2362,16.37395 -4.0808,0.83527 -14.1011,0.95761 -19.1833,0.23422 z M 443.816,269.7081 v -36.61674 h 8.05569 8.05568 v 36.61674 36.61674 h -8.05568 -8.05569 z m 34.17563,0 v -36.61674 l 9.88652,0.009 9.88652,0.009 15.56214,26.86402 c 8.55917,14.77521 15.62583,26.79996 15.70369,26.72165 0.0779,-0.0783 -0.05,-4.42654 -0.28422,-9.66273 -0.23418,-5.2362 -0.4352,-17.2648 -0.44672,-26.73023 l -0.0209,-17.20989 h 7.32335 7.32335 v 36.61674 36.61674 l -10.13063,-0.008 -10.13063,-0.008 -15.56907,-27.1015 c -8.56299,-14.90583 -15.6337,-27.03688 -15.71269,-26.95788 -0.079,0.079 0.0542,3.5453 0.29609,7.70291 0.24184,4.1576 0.44691,16.29237 0.45571,26.96615 l 0.016,19.40687 h -7.07923 -7.07924 z m 96.04069,30.14778 c -1.1977,-3.55792 -6.70944,-19.80059 -12.24831,-36.09481 -5.53887,-16.29423 -10.07067,-29.86073 -10.07067,-30.14779 0,-0.34903 2.63192,-0.52192 7.94544,-0.52192 h 7.94544 l 7.43348,23.55677 c 4.08841,12.95622 7.92785,25.69778 8.53209,28.31457 0.60424,2.6168 1.20847,4.75499 1.34273,4.75155 0.13426,-0.003 0.928,-2.80355 1.76387,-6.22247 0.83586,-3.41892 4.68062,-16.15605 8.5439,-28.30473 l 7.02415,-22.08852 7.93363,-0.003 c 6.06281,-0.003 7.93363,0.14168 7.93363,0.61245 0,0.33881 -5.49251,16.74127 -12.20558,36.44991 -6.71307,19.70865 -12.20558,35.90897 -12.20558,36.00072 0,0.0916 -3.93538,0.16665 -8.74529,0.16665 h -8.74529 z m 52.8674,-30.14778 v -36.61674 h 8.05568 8.05568 v 36.61674 36.61674 h -8.05568 -8.05568 z m 59.56323,0 v -36.61674 h 20.50538 20.50537 v 4.14989 4.1499 h -16.11136 -16.11137 v 12.93792 12.93791 h 15.13492 15.13492 v 4.1499 4.1499 h -15.13492 -15.13492 v 15.37903 15.37903 h -4.39401 -4.39401 z m 44.11662,32.60627 c 0.87384,-2.22487 7.39816,-18.81966 14.49844,-36.87733 l 12.90965,-32.83211 3.71703,-9.8e-4 3.71699,-9.7e-4 14.02114,35.86287 c 7.71163,19.72459 14.1386,36.31197 14.28214,36.86086 0.24919,0.95291 0.0537,0.99798 -4.33059,0.99798 h -4.59159 l -4.42911,-11.35119 -4.42911,-11.35119 -14.41772,-0.12924 -14.41777,-0.12924 -1.83777,4.76736 c -1.01077,2.62205 -2.98925,7.73331 -4.3966,11.35837 l -2.55878,6.59101 -4.66258,0.13943 -4.6626,0.13941 1.58883,-4.0452 z m 42.06347,-28.09021 c -2.13949,-5.37791 -9.61956,-25.83417 -10.09064,-27.59533 -0.33956,-1.26959 -0.73659,-2.30804 -0.88227,-2.30766 -0.14569,3.7e-4 -0.66438,1.3735 -1.15265,3.05139 -0.684,2.35055 -7.84345,21.85268 -9.85752,26.8516 -0.32193,0.79906 0.3898,0.85439 10.98937,0.85439 10.59791,0 11.31155,-0.0555 10.99371,-0.85439 z m 30.99349,-4.56946 v -36.67015 l 14.28053,0.23281 c 12.85267,0.20953 14.64665,0.33999 17.9422,1.30487 8.7434,2.55989 13.0837,7.41214 14.14832,15.81705 1.29145,10.19599 -2.68254,18.07587 -11.16645,22.14159 l -2.87363,1.37713 9.71032,16.01022 c 5.34072,8.80562 9.71037,16.11066 9.71037,16.23342 0,0.12276 -2.37252,0.2232 -5.27227,0.2232 h -5.27228 l -8.76414,-15.11584 -8.76414,-15.11583 -7.44541,-0.0191 -7.4454,-0.0191 v 15.13492 15.13492 h -4.39401 -4.39401 z m 27.81671,-2.13424 c 3.86317,-1.02804 6.33162,-2.958 8.02947,-6.27785 1.97237,-3.85673 2.04766,-9.00849 0.1908,-13.06432 -2.39205,-5.22494 -6.33944,-6.72211 -18.82711,-7.14076 l -8.42185,-0.28235 v 13.74413 13.74412 l 8.17774,-0.006 c 5.59665,-0.004 9.02148,-0.23032 10.85095,-0.71717 z m 35.16409,2.17386 V 233.0638 l 6.68646,0.13583 6.68651,0.13584 11.49922,29.90554 c 6.32454,16.44805 11.59076,29.63007 11.70271,29.29339 0.11195,-0.33668 5.30899,-13.79417 11.54902,-29.90554 l 11.34547,-29.29339 6.63794,-0.13584 6.63793,-0.13583 v 36.63052 36.63052 h -4.4109 -4.41095 l 0.13899,-31.73593 c 0.0764,-17.45477 0.0774,-31.57052 0,-31.36835 -0.0753,0.20218 -5.5777,14.42842 -12.2276,31.61388 l -12.0908,31.24629 -3.71303,0.14172 -3.71299,0.14171 -2.22805,-5.75628 c -1.22544,-3.16596 -6.6849,-17.4033 -12.1322,-31.63855 l -9.9042,-25.88226 0.14818,31.61888 0.14822,31.61889 h -4.17606 -4.17602 v -36.63052 z m 188.94237,22.8625 v -13.76803 l -12.2056,-22.62292 c -6.713,-12.44261 -12.2055,-22.73223 -12.2055,-22.8658 0,-0.13358 2.2287,-0.18026 4.9527,-0.10374 l 4.9528,0.13914 9.3278,17.68454 c 5.1302,9.7265 9.4408,17.69064 9.579,17.69809 0.1382,0.007 4.529,-8.00551 9.7573,-17.8066 l 9.506,-17.82014 h 4.8196 c 4.3867,0 4.7908,0.0767 4.499,0.85439 -0.1763,0.46991 -5.6923,10.67967 -12.2578,22.68837 l -11.9373,21.83397 v 13.92838 13.92837 h -4.394 -4.394 z M 1168.3393,273.858 v -32.46685 h -11.4733 -11.4732 v -4.1499 -4.14989 h 27.3405 27.3405 v 4.14989 4.1499 h -11.4732 -11.4733 v 32.46685 32.46684 h -4.394 -4.394 z m 42.4754,-4.1499 v -36.61674 h 20.5054 20.5054 v 4.14989 4.1499 h -16.1114 -16.1114 v 11.47325 11.47324 h 15.1349 15.135 v 3.90579 3.90579 h -15.135 -15.1349 v 13.18202 13.18203 h 16.1114 16.1114 v 3.90579 3.90578 h -20.5054 -20.5054 z m 56.6339,-0.0138 v -36.63052 l 6.6234,0.13583 6.6234,0.13584 11.2373,29.29339 c 6.1804,16.11137 11.3839,29.44733 11.5632,29.63547 0.1793,0.18814 5.4911,-12.99389 11.804,-29.29339 l 11.4781,-29.63548 6.7079,-0.13584 6.708,-0.13583 v 36.63052 36.63052 h -4.6882 -4.6883 l 0.1722,-31.20569 c 0.095,-17.16314 0.1363,-31.16905 0.093,-31.12424 -0.044,0.0448 -5.1293,13.15365 -11.3013,29.13075 -6.1721,15.97711 -11.6012,29.99176 -12.0648,31.14368 l -0.843,2.09439 -3.698,-0.1415 -3.6979,-0.1415 -11.6042,-30.26984 c -6.3823,-16.64841 -11.7762,-30.76479 -11.9864,-31.36974 -0.2103,-0.60494 -0.3093,13.07142 -0.2201,30.3919 l 0.1623,31.49179 h -4.1901 -4.1901 v -36.63052 z m -956.52015,6.81082 c -17.54528,-2.57378 -33.97629,-14.50766 -42.06064,-30.54875 -11.57704,-22.97131 -5.8821,-51.85487 13.49177,-68.42743 3.64188,-3.1153 8.11539,-6.15542 8.49663,-5.77418 0.15173,0.15172 -0.39925,1.04478 -1.2244,1.98457 -2.57893,2.93725 -5.43744,7.45497 -7.67563,12.13095 -14.55568,30.40932 0.79111,66.18562 33.15925,77.30052 13.59739,4.66922 30.3619,3.31192 43.22939,-3.49997 1.72774,-0.91464 3.24992,-1.55439 3.38265,-1.42167 0.38805,0.38806 -4.49463,4.87837 -8.67525,7.97812 -6.79846,5.04075 -15.13269,8.55985 -23.88805,10.08666 -4.38803,0.76521 -13.65996,0.86241 -18.23572,0.19118 z m -8.20896,-132.55168 c -6.26014,-1.64409 -12.66447,-5.93205 -17.80974,-11.92433 -2.80561,-3.26746 -6.73787,-9.03569 -11.48251,-16.8437 -8.12822,-13.37618 -13.1698,-18.912766 -19.15855,-21.039594 -2.10864,-0.748861 -7.39438,-1.002473 -9.16706,-0.439845 -0.53291,0.16914 -0.96893,0.09657 -0.96893,-0.161265 0,-0.257831 2.25339,-1.455647 5.00753,-2.661813 9.24476,-4.048703 15.78994,-5.666319 24.57355,-6.073267 6.66867,-0.308963 11.89372,0.296996 18.12061,2.101479 18.69679,5.418116 34.0197,21.866865 37.22426,39.959275 0.60509,3.41622 0.66075,8.07606 0.10689,8.94856 -0.26977,0.42497 -1.72164,-0.98401 -4.67543,-4.53734 -7.6032,-9.14646 -17.43386,-16.71575 -28.82458,-22.19399 -5.69299,-2.73797 -12.68433,-5.4915 -10.83514,-4.2674 0.49913,0.33041 3.46509,2.26221 6.59102,4.2929 7.93373,5.15398 14.53913,10.60733 21.07919,17.40275 5.25715,5.46243 12.15134,14.30858 12.17728,15.62507 0.0122,0.61603 -1.92964,1.25826 -6.32426,2.09168 -3.70886,0.70337 -12.48999,0.54657 -15.63413,-0.27917 z m 93.98297,-30.33014 c -5.04581,-0.4584 -17.82015,-3.29053 -17.82015,-3.95081 0,-0.15378 1.63455,-2.7112 3.63234,-5.68314 14.99368,-22.30488 39.3762,-44.163021 66.7705,-59.857589 3.26441,-1.87022 5.79689,-3.4004 5.62774,-3.4004 -0.64996,0 -9.91401,3.492923 -15.62007,5.889404 -26.70165,11.21438 -47.52502,26.872798 -63.73064,47.923134 -2.00958,2.610354 -3.84226,4.629617 -4.07261,4.487247 -0.69755,-0.4311 -0.47044,-12.95938 0.31676,-17.473502 2.22547,-12.761819 9.24576,-27.125465 18.88021,-38.629278 8.89896,-10.62562 19.32824,-18.792534 31.78816,-24.892549 12.95412,-6.341961 23.67549,-8.9592479 38.42912,-9.3812639 16.50074,-0.47199 29.48528,1.9484799 46.00932,8.5766729 4.72406,1.894931 13.73483,6.394143 13.42545,6.703523 -0.12699,0.126992 -1.19362,0.0089 -2.37027,-0.262329 -3.12233,-0.719838 -9.00195,-0.611283 -12.58051,0.232273 -9.27987,2.187495 -18.30389,10.053137 -27.7873,24.220357 -1.374,2.052607 -5.71654,8.973171 -9.6501,15.379031 -11.61633,18.917386 -17.01859,26.255958 -24.94593,33.887175 -9.58424,9.226234 -19.03572,14.076644 -30.92096,15.868334 -4.28177,0.64548 -10.62765,0.79554 -15.38106,0.36371 z"
     id="path59"
     inkscape:connector-curvature="0" />
</svg>
